<svg version="1.1" xmlns="http://www.w3.org/2000/svg" x="0" y="0" width="1024px" height="1024px" viewBox="0 0 1024 1024" enable-background="new 0 0 1024 1024" xml:space="preserve"><style>.st1{fill:#21759b}</style><circle cx="510.6" cy="510.6" r="510.6" fill="#fff"/><path class="st1" d="M512 0C229.7 0 0 229.7 0 512s229.7 512 512 512 512-229.7 512-512C1023.2 229.7 793.5 0 512 0zm0 999.8C242.2 999.8 23.4 780.9 23.4 512 23.4 242.2 242.2 23.4 512 23.4c268.9 0 488.6 218.8 488.6 488.6-.8 268.9-219.7 487.8-488.6 487.8z"/><path class="st1" d="M512 950.5c233.9 0 425.1-182.9 438.5-414.3h-877C86 767.6 277.3 950.5 512 950.5zm0-877.8C278.1 72.7 86.9 255.6 73.5 487h876.2C937.1 256.4 745.9 72.7 512 72.7zM310.7 402.6c-10 9.2-25.9 9.2-35.1-.8-9.2-10-9.2-25.9.8-35.1 10-9.2 25.9-9.2 35.1.8s9.2 25.9-.8 35.1zm91-98.6c-13.4 0-24.2-11.7-24.2-25.1s11.7-24.2 25.1-24.2 24.2 11.7 24.2 25.1c0 14.2-11.7 25.1-25.1 24.2zM512 409.3c-13.4 0-24.2-11.7-24.2-25.1s11.7-24.2 25.1-24.2c13.4 0 24.2 11.7 24.2 25.1 0 14.1-11.7 24.2-25.1 24.2zM623.9 304c-13.4 0-24.2-11.7-24.2-25.1s11.7-24.2 25.1-24.2 24.2 11.7 24.2 25.1c0 14.2-10.9 25.1-25.1 24.2zm127 96.1c-10 9.2-25.9 9.2-35.1-.8-9.2-10-9.2-25.9.8-35.1 10-9.2 25.9-9.2 35.1.8 9.2 10 9.2 25.1-.8 35.1zM536.2 950.5h-25.1 25.1zm-49.3 0H512h-25.1z"/></svg>
