<svg version="1.1" width="1024" height="1024" xmlns="http://www.w3.org/2000/svg" x="0" y="0" viewBox="0 0 1024 1024" xml:space="preserve"><style>.st0{fill:#fff}.st1{fill:#21759b}</style><path class="st0" d="M512.9 360c-13.4 0-25.1 10.8-25.1 24.2 0 13.4 10.8 25.1 24.2 25.1s25.1-10.1 25.1-24.2c0-13.4-10.8-25.1-24.2-25.1zM624.8 254.7c-13.4 0-25.1 10.8-25.1 24.2 0 13.4 10.8 25.1 24.2 25.1 14.2.9 25.1-10 25.1-24.2 0-13.4-10.8-25.1-24.2-25.1zM402.6 254.7c-13.4 0-25.1 10.8-25.1 24.2 0 13.4 10.8 25.1 24.2 25.1 13.4.9 25.1-10 25.1-24.2 0-13.4-10.8-25.1-24.2-25.1zM276.4 366.7c-10 9.2-10 25.1-.8 35.1s25.1 10 35.1.8 10-25.1.8-35.1-25.1-10-35.1-.8zM511.3 0h-.7C228.6 0 0 228.6 0 510.6v.7C.4 229.6 229.6.4 511.3 0zM716.6 364.2c-10 9.2-10 25.1-.8 35.1s25.1 10 35.1.8c10-10 10-25.1.8-35.1s-25.1-10-35.1-.8z"/><path class="st0" d="M512 999.8c268.9 0 487.8-218.9 488.6-487.8 0-269.8-219.7-488.6-488.6-488.6C242.2 23.4 23.4 242.2 23.4 512c0 268.9 218.8 487.8 488.6 487.8zm0-927.1c233.9 0 425.1 183.7 437.7 414.3H73.5C86.9 255.6 278.1 72.7 512 72.7zm438.5 463.5C937.1 767.6 745.9 950.5 512 950.5h24.2-49.3H512c-234.7 0-426-182.9-438.5-414.3h877z"/><path class="st1" d="M512 0h-.7C229.6.4.4 229.6 0 511.3v.7c0 282.3 229.7 512 512 512s512-229.7 512-512C1023.2 229.7 793.5 0 512 0zm0 23.4c268.9 0 488.6 218.8 488.6 488.6-.8 268.9-219.7 487.8-488.6 487.8-269.8 0-488.6-218.9-488.6-487.8C23.4 242.2 242.2 23.4 512 23.4z"/><path class="st1" d="M512 950.5c233.9 0 425.1-182.9 438.5-414.3h-877C86 767.6 277.3 950.5 512 950.5zM511.2 72.7C277.3 72.7 86.1 255.6 72.7 487h877C937.2 255.6 745.9 72.7 511.2 72.7zM309.5 349.9c-10 9.2-25.9 9.2-35.1-.8s-9.2-25.9.8-35.1 25.9-9.2 35.1.8 9.2 25.9-.8 35.1zm91-98.6c-13.4 0-24.2-11.7-24.2-25.1 0-13.4 11.7-24.2 25.1-24.2 13.4 0 24.2 11.7 24.2 25.1 0 14.2-11.7 25.1-25.1 24.2zm110.3 105.3c-13.4 0-24.2-11.7-24.2-25.1 0-13.4 11.7-24.2 25.1-24.2 13.4 0 24.2 11.7 24.2 25.1 0 14.1-11.7 24.2-25.1 24.2zm111.9-105.3c-13.4 0-24.2-11.7-24.2-25.1 0-13.4 11.7-24.2 25.1-24.2s24.2 11.7 24.2 25.1c0 14.2-10.9 25.1-25.1 24.2zm127 96.1c-10 9.2-25.9 9.2-35.1-.8-9.2-10-9.2-25.9.8-35.1s25.9-9.2 35.1.8c9.2 10 9.2 25.1-.8 35.1z"/><path class="st0" d="M749.7 347.4c10-10 10-25.1.8-35.1s-25.1-10-35.1-.8-10 25.1-.8 35.1 25.1 10 35.1.8zM622.7 251.3c14.2.9 25.1-10 25.1-24.2 0-13.4-10.8-25.1-24.2-25.1-13.4 0-25.1 10.8-25.1 24.2 0 13.4 10.8 25.1 24.2 25.1zM400.5 251.3c13.4.9 25.1-10 25.1-24.2 0-13.4-10.8-25.1-24.2-25.1-13.4 0-25.1 10.8-25.1 24.2 0 13.4 10.8 25.1 24.2 25.1zM510.8 356.6c13.4 0 25.1-10.1 25.1-24.2 0-13.4-10.8-25.1-24.2-25.1-13.4 0-25.1 10.8-25.1 24.2 0 13.4 10.8 25.1 24.2 25.1zM309.5 349.9c10-9.2 10-25.1.8-35.1s-25.1-10-35.1-.8-10 25.1-.8 35.1 25.1 10 35.1.8z"/></svg>
